<?xml version="1.0" standalone="no"?>
<!DOCTYPE svg PUBLIC "-//W3C//DTD SVG 20010904//EN"
 "http://www.w3.org/TR/2001/REC-SVG-20010904/DTD/svg10.dtd">
<svg version="1.0" xmlns="http://www.w3.org/2000/svg"
 width="1136.000000pt" height="640.000000pt" viewBox="0 0 1136.000000 640.000000"
 preserveAspectRatio="xMidYMid meet">

<g transform="translate(0.000000,640.000000) scale(0.100000,-0.100000)"
fill="#000000" stroke="none">
<path d="M0 3761 c0 -2397 1 -2639 16 -2645 9 -3 30 -6 47 -6 18 0 48 -5 67
-11 19 -6 51 -13 70 -16 44 -6 74 -31 60 -48 -13 -16 -87 -35 -134 -35 -20 0
-56 -5 -81 -12 l-45 -12 0 -488 0 -488 1010 0 c556 0 1010 3 1010 7 0 18 -56
123 -66 123 -6 0 -36 26 -66 58 -61 64 -81 114 -98 245 -15 122 -26 154 -74
219 -75 103 -108 133 -196 178 -24 12 -56 35 -70 50 -25 27 -32 43 -100 230
-77 212 -77 213 -145 282 -35 37 -75 70 -87 73 -51 15 -158 167 -158 223 0 11
-13 46 -30 77 -16 31 -30 66 -30 76 0 11 -5 25 -10 32 -6 7 -25 34 -42 61 -17
26 -50 61 -72 77 -23 15 -49 35 -59 44 -10 9 -35 24 -55 32 -92 39 -181 134
-212 227 -13 41 -91 170 -132 219 -23 27 -232 137 -261 137 -25 0 -28 14 -28
131 0 87 3 115 15 128 9 10 16 23 16 29 0 7 4 12 8 12 5 0 19 19 32 43 13 23
34 57 47 76 13 19 28 52 34 75 6 23 16 50 22 61 6 11 14 99 18 195 9 199 19
259 54 312 14 21 25 40 25 43 0 13 45 65 55 65 13 0 100 89 132 135 19 29 73
168 95 248 7 26 16 37 30 37 13 0 24 -12 34 -37 9 -21 27 -52 40 -70 13 -17
24 -36 24 -41 0 -11 47 -52 60 -52 5 0 13 -6 17 -13 4 -7 24 -24 42 -37 77
-53 114 -102 182 -241 28 -57 41 -106 63 -244 24 -149 135 -303 257 -356 67
-29 161 -137 175 -202 10 -46 92 -297 107 -327 29 -59 135 -176 206 -228 42
-30 86 -65 98 -78 13 -13 28 -27 35 -31 23 -14 55 -68 88 -144 32 -73 46 -116
115 -339 38 -121 50 -156 69 -205 16 -42 99 -165 150 -222 53 -61 81 -101 91
-133 4 -14 15 -30 23 -36 8 -6 26 -68 43 -150 52 -250 67 -288 151 -375 9 -10
24 -31 32 -46 8 -15 33 -46 56 -68 40 -39 80 -111 80 -144 0 -9 11 -37 25 -63
14 -26 25 -52 25 -58 0 -6 -21 -21 -47 -33 -143 -67 -250 -151 -287 -224 -27
-53 -22 -63 29 -63 31 0 45 4 45 13 0 29 63 100 123 138 223 145 660 272 788
230 20 -6 51 -28 71 -49 49 -52 85 -150 60 -166 -18 -11 -187 -35 -194 -28 -5
5 5 26 22 47 36 45 35 69 -2 73 -22 3 -33 -5 -58 -39 -31 -43 -70 -152 -70
-195 0 -21 5 -24 35 -24 30 0 35 3 35 24 0 14 5 28 10 31 6 4 71 17 144 31 73
13 171 35 217 48 46 13 120 32 164 41 44 9 118 27 165 40 103 30 272 72 360
90 36 8 97 24 135 35 39 12 97 28 130 36 122 29 422 128 485 159 71 35 132 70
170 98 54 38 400 259 495 315 33 20 74 47 92 62 18 14 69 50 113 80 109 74
211 148 252 185 46 42 110 92 183 145 98 70 191 148 208 173 9 14 19 72 26
147 7 69 17 141 23 160 5 19 36 62 67 95 85 90 96 119 95 239 0 56 -5 133 -11
171 -11 68 -10 71 14 92 27 26 75 30 93 8 23 -28 41 -112 50 -235 13 -185 53
-289 117 -305 15 -3 35 -12 43 -19 8 -8 42 -23 75 -34 69 -23 235 -31 373 -17
97 9 100 5 50 -71 -50 -74 -162 -126 -328 -154 -97 -16 -183 -38 -298 -76
-184 -61 -257 -99 -333 -174 -72 -71 -226 -206 -280 -246 -15 -10 -69 -53
-120 -94 -52 -42 -105 -83 -119 -92 -14 -9 -35 -25 -47 -37 -12 -12 -25 -21
-28 -21 -4 0 -14 -7 -23 -16 -9 -9 -56 -43 -106 -76 -49 -33 -101 -68 -115
-79 -14 -11 -74 -51 -133 -89 -59 -38 -127 -85 -152 -104 -25 -19 -80 -54
-123 -77 -43 -24 -85 -48 -94 -54 -57 -35 -217 -114 -289 -142 -99 -38 -262
-88 -370 -113 -19 -4 -84 -20 -145 -35 -60 -14 -147 -35 -192 -45 -109 -25
-285 -79 -298 -92 -13 -12 251 -4 315 10 25 5 108 26 185 47 77 20 191 50 253
65 140 36 159 42 302 97 63 25 141 60 172 79 31 19 94 54 140 77 46 24 117 65
158 91 41 27 86 55 99 63 21 13 29 13 77 -2 62 -19 81 -15 126 28 38 37 56 65
91 149 13 30 50 59 62 46 1 -1 -6 -37 -17 -78 -15 -58 -18 -95 -14 -162 2 -48
9 -96 15 -106 18 -33 25 -129 12 -159 -13 -33 -74 -63 -126 -63 -19 0 -59 7
-90 15 -77 20 -133 10 -230 -38 -44 -23 -82 -43 -85 -46 -24 -28 -66 -35 -235
-41 -174 -5 -182 -7 -232 -34 -29 -16 -53 -33 -53 -38 0 -4 125 -8 278 -8 260
0 280 1 296 19 9 10 57 35 106 55 l89 37 103 -8 103 -8 3 -47 3 -48 2630 0
2629 0 0 618 0 619 -212 -5 c-167 -3 -233 -1 -307 12 -52 9 -187 25 -300 37
-113 11 -219 24 -235 30 -16 5 -42 9 -57 9 -15 0 -38 4 -51 9 -13 5 -57 19
-98 31 -239 70 -261 103 -110 163 48 20 110 39 136 43 27 4 60 11 74 16 46 18
207 37 357 43 81 4 195 13 253 20 58 8 188 17 290 21 157 6 191 4 223 -9 l37
-16 0 2380 0 2379 -5680 0 -5680 0 0 -2639z m5199 1067 c46 -50 52 -87 49
-296 -3 -170 -1 -193 19 -259 30 -95 54 -141 130 -243 108 -145 132 -212 158
-445 7 -66 17 -138 22 -160 12 -48 47 -115 88 -164 29 -34 86 -106 112 -139
12 -16 19 -32 16 -36 -3 -3 -31 -6 -60 -6 -30 0 -97 -5 -150 -11 -102 -12
-129 -5 -103 26 8 9 18 44 23 78 4 34 10 76 13 92 12 79 16 302 5 309 -6 4
-11 17 -11 28 0 11 -9 35 -20 53 -26 42 -90 65 -180 65 -66 0 -68 1 -106 43
-85 91 -251 196 -389 245 -103 37 -292 53 -384 31 -24 -5 -46 -7 -49 -4 -17
16 131 235 181 268 14 9 39 17 54 17 27 0 73 -34 73 -55 0 -16 43 -38 66 -33
31 6 27 41 -11 91 -80 105 -217 86 -324 -46 -28 -34 -76 -111 -107 -172 -31
-60 -78 -147 -105 -193 -27 -45 -49 -85 -49 -87 0 -19 -75 -104 -96 -109 -35
-9 -41 -3 -49 51 -15 106 -100 227 -155 221 -37 -4 -36 -30 4 -85 43 -60 76
-135 76 -173 0 -31 -22 -79 -42 -91 -41 -26 -197 2 -343 62 -83 34 -180 70
-290 108 -44 16 -105 38 -135 51 -128 52 -166 64 -285 95 -128 32 -361 44
-513 25 -104 -12 -136 -27 -126 -55 7 -18 49 -19 236 -4 104 9 157 9 220 0
142 -21 154 -27 92 -50 -35 -13 -194 -162 -194 -182 0 -6 -9 -29 -21 -52 -33
-68 -73 -234 -88 -372 -11 -93 3 -242 29 -317 l20 -59 -25 -45 c-32 -58 -32
-79 5 -106 22 -16 30 -30 30 -53 0 -53 23 -73 90 -81 33 -4 60 -9 60 -13 0
-16 141 -151 164 -157 14 -3 28 -10 31 -14 2 -4 -43 -52 -100 -107 -58 -56
-105 -105 -105 -111 0 -5 -7 -12 -15 -16 -9 -3 -15 -18 -15 -37 0 -24 3 -30
16 -25 9 3 21 6 28 6 6 0 45 33 86 73 169 164 298 264 415 322 22 11 47 25 55
31 29 22 196 73 273 83 43 6 150 11 237 11 267 0 392 -35 543 -153 54 -42 175
-170 205 -217 9 -14 20 -28 24 -31 5 -3 16 -21 26 -40 10 -19 33 -59 50 -90
28 -51 79 -189 97 -264 13 -56 34 -220 35 -268 0 -59 -34 -236 -56 -292 -9
-22 -20 -49 -24 -60 -30 -75 -70 -151 -123 -234 -109 -172 -134 -199 -282
-312 -114 -87 -299 -148 -452 -149 -66 0 -83 -3 -83 -15 0 -25 36 -35 129 -35
85 0 160 13 261 46 50 17 132 54 140 64 3 4 28 19 56 34 75 40 175 136 231
218 26 40 50 78 52 83 2 6 24 35 48 66 23 30 43 58 43 61 0 4 13 35 29 70 32
70 61 165 87 280 26 118 9 361 -37 543 -23 91 -147 354 -171 363 -5 2 -37 39
-72 82 -71 88 -160 170 -211 194 -19 9 -36 20 -39 24 -2 4 7 25 20 47 13 22
31 55 39 73 16 34 35 41 55 17 19 -23 114 -73 154 -80 45 -9 51 -17 26 -40
-29 -26 -10 -55 37 -55 74 0 224 124 295 242 26 45 48 82 48 84 0 2 14 27 31
56 60 100 79 137 79 150 0 8 18 51 40 96 22 44 40 86 40 92 0 5 4 10 9 10 5 0
16 19 26 43 30 76 79 172 97 191 10 11 28 34 40 52 43 63 92 70 136 20 23 -26
32 -49 37 -89 6 -50 -10 -260 -21 -279 -3 -4 -14 -42 -25 -83 -18 -72 -82
-206 -118 -250 -9 -11 -23 -32 -30 -46 -21 -43 -143 -177 -201 -220 -69 -52
-163 -96 -221 -104 -57 -8 -74 -18 -66 -39 5 -12 20 -16 64 -16 77 1 131 14
227 56 75 33 112 58 188 127 34 31 47 29 31 -6 -27 -57 -83 -259 -83 -302 0
-34 -37 -48 -123 -47 -44 1 -85 6 -91 11 -24 20 -96 17 -96 -4 0 -31 76 -56
193 -62 85 -5 85 -5 61 -72 -13 -40 -13 -46 0 -60 14 -14 19 -13 43 6 17 12
30 33 34 54 3 19 12 50 21 69 14 30 21 61 45 180 7 38 69 167 107 225 37 55
124 138 171 162 16 9 59 18 95 21 62 4 66 3 92 -26 14 -17 40 -33 57 -37 22
-5 31 -12 31 -26 0 -11 7 -33 15 -49 9 -16 18 -50 21 -75 6 -38 4 -46 -12 -51
-11 -4 -38 -21 -62 -37 -24 -16 -89 -48 -145 -71 -60 -26 -102 -49 -102 -57 0
-8 -6 -20 -12 -27 -7 -7 -13 -19 -13 -26 0 -7 -10 -32 -22 -57 l-21 -44 -13
32 c-17 41 -51 61 -69 41 -11 -11 -11 -23 1 -70 19 -74 7 -148 -37 -224 -30
-53 -33 -101 -6 -91 16 6 47 -11 47 -26 1 -31 72 -182 100 -210 31 -31 32 -34
27 -104 -5 -73 -1 -83 38 -83 14 0 35 50 35 85 0 13 6 28 14 34 19 16 93 -21
108 -54 6 -13 24 -29 39 -36 38 -15 59 1 59 47 l0 34 59 0 c76 0 105 -27 91
-85 -34 -143 -91 -236 -162 -266 -41 -17 -154 -6 -203 19 -39 20 -54 33 -160
141 -54 55 -82 64 -89 29 -5 -28 -23 -145 -32 -213 -4 -27 -15 -75 -25 -105
-23 -68 -25 -136 -4 -143 9 -4 24 11 45 48 32 57 34 61 51 165 19 120 16 118
108 55 89 -60 121 -70 231 -69 123 0 228 51 260 127 6 12 14 29 19 37 5 8 14
35 21 60 25 93 24 93 72 -10 60 -129 74 -185 53 -216 -8 -13 -20 -24 -25 -24
-5 0 -45 -27 -88 -60 -67 -50 -87 -60 -120 -60 -41 0 -67 -19 -60 -42 5 -15
-61 -64 -201 -147 -57 -34 -120 -74 -140 -90 -20 -16 -58 -41 -86 -56 -27 -15
-95 -56 -150 -90 -137 -85 -250 -127 -550 -207 -22 -6 -60 -17 -85 -24 -99
-30 -576 -146 -622 -151 -49 -6 -50 -5 -39 15 15 27 14 95 -1 110 -22 22 -68
14 -96 -17 -57 -60 -69 -77 -76 -104 -8 -32 -36 -68 -48 -61 -4 3 -8 14 -8 26
0 34 -60 136 -96 163 -55 42 -98 55 -183 55 -102 0 -206 -20 -361 -70 -69 -22
-133 -40 -142 -40 -20 0 -24 20 -7 37 7 7 7 22 0 49 -5 22 -12 50 -15 64 -12
64 -66 170 -87 170 -5 0 -18 18 -29 40 -11 22 -25 40 -30 40 -6 0 -10 4 -10
10 0 5 -20 40 -45 77 -42 62 -57 97 -69 163 -38 211 -84 358 -125 405 -10 11
-27 36 -39 55 -11 20 -33 47 -47 60 -44 41 -122 153 -133 190 -6 19 -25 71
-42 115 -17 44 -40 114 -51 155 -11 41 -24 84 -29 95 -5 11 -16 45 -26 75 -23
76 -91 196 -139 249 -22 24 -68 61 -102 83 -34 22 -74 53 -87 69 -14 16 -28
29 -33 30 -13 1 -113 126 -113 141 0 18 -104 316 -129 371 -24 52 -115 147
-162 170 -20 9 -60 39 -90 66 -30 28 -58 51 -62 51 -4 0 -19 26 -33 58 -14 31
-30 66 -36 76 -6 11 -16 51 -23 90 -33 176 -50 240 -81 305 -15 29 -39 65 -55
79 -16 14 -29 30 -29 37 0 10 -77 80 -111 100 -88 52 -235 244 -227 298 2 13
17 29 38 40 30 16 53 18 155 14 66 -3 180 -10 254 -17 120 -12 144 -11 228 5
52 9 131 33 176 53 81 35 84 36 217 35 112 0 153 -5 240 -27 136 -34 279 -36
390 -6 41 12 86 29 100 39 52 37 140 82 187 96 69 21 117 18 180 -10 73 -34
192 -49 323 -41 106 7 182 24 320 74 66 24 89 27 190 26 63 -1 133 -6 155 -12
51 -15 233 -15 311 -1 32 6 91 25 129 44 105 49 162 59 274 49 201 -18 339 -4
446 45 33 16 71 33 85 39 40 19 86 7 119 -30z m-564 -850 c39 -6 97 -19 130
-30 59 -20 186 -80 209 -99 6 -5 38 -30 71 -55 87 -68 145 -126 145 -144 0 -9
-29 -60 -65 -114 -36 -53 -65 -103 -65 -111 0 -17 -17 -23 -113 -35 -71 -9
-166 -32 -276 -66 -24 -7 -47 -11 -52 -8 -5 3 -19 24 -31 47 -29 58 -90 138
-130 172 -44 37 -91 57 -158 66 -79 10 -126 -6 -157 -53 -14 -21 -31 -38 -37
-38 -15 1 -106 85 -106 99 0 5 17 13 38 17 89 16 163 76 202 165 6 13 28 50
48 83 31 48 46 62 87 78 42 17 108 30 175 35 8 0 47 -3 85 -9z m-1610 -150
c33 -14 87 -36 120 -48 33 -12 83 -31 110 -42 28 -11 97 -38 155 -58 58 -21
143 -52 189 -69 82 -31 252 -58 285 -45 30 11 73 -22 166 -129 74 -84 77 -102
17 -93 -54 8 -100 -7 -95 -31 2 -13 24 -22 83 -34 44 -9 96 -24 115 -33 l35
-16 -50 5 c-27 3 -124 8 -215 11 -156 6 -194 4 -445 -27 -101 -12 -352 -83
-425 -119 -139 -69 -193 -100 -213 -118 -12 -11 -38 -28 -57 -37 -19 -10 -68
-40 -107 -67 -84 -56 -123 -74 -123 -55 1 20 66 84 130 128 33 22 63 45 66 51
9 14 -24 38 -52 38 -22 0 -102 -38 -131 -61 -7 -7 -15 -10 -17 -8 -2 2 -14 50
-25 107 -19 91 -20 115 -12 200 17 160 76 323 157 429 42 56 91 100 119 109
11 4 29 15 39 26 25 27 99 21 181 -14z m1375 -383 c10 -12 10 -15 -1 -15 -26
0 -59 12 -59 21 0 15 47 10 60 -6z m595 -143 c-13 -53 -198 -414 -216 -420 -5
-2 -9 -9 -9 -16 0 -7 -29 -43 -64 -80 -46 -50 -69 -67 -81 -62 -9 3 -35 9 -58
12 -52 8 -125 44 -153 76 -25 28 -64 118 -64 148 0 13 8 24 20 27 11 3 20 9
20 13 0 4 35 23 78 43 43 19 88 44 101 54 22 18 22 20 6 36 -9 9 -27 17 -41
17 -39 0 -28 14 39 48 74 38 344 125 403 130 24 2 26 -1 19 -26z m-939 -122
c100 -17 218 -52 232 -68 17 -22 15 -29 -11 -47 -21 -13 -37 -14 -121 -3 -87
11 -98 10 -113 -5 -16 -15 -16 -18 -1 -33 11 -11 181 -54 217 -54 7 0 -11
-117 -25 -160 -20 -58 -64 -129 -86 -136 -10 -3 -45 2 -79 10 -314 81 -778 24
-993 -122 -108 -73 -132 -84 -168 -77 -31 7 -168 132 -168 154 0 6 18 23 40
37 22 15 40 35 40 44 0 32 -56 40 -100 16 -57 -32 -113 -55 -121 -50 -22 13
-5 34 49 62 33 17 116 68 187 113 275 176 493 252 905 318 78 12 246 13 316 1z
m5735 -125 c59 -87 84 -247 59 -381 -13 -73 -57 -210 -83 -260 -35 -67 -180
-164 -297 -199 -38 -11 -568 -268 -626 -304 -27 -16 -124 -145 -124 -164 0 -3
-21 -36 -47 -72 -27 -37 -77 -108 -113 -159 -36 -51 -83 -115 -106 -142 -22
-27 -67 -85 -99 -129 -58 -79 -144 -185 -176 -217 -31 -31 -94 -56 -199 -78
-360 -75 -444 -91 -530 -101 -52 -5 -124 -16 -160 -23 -191 -40 -402 -68 -414
-56 -5 5 -11 38 -13 74 l-3 64 63 10 c65 11 225 34 367 52 160 21 295 41 340
51 25 5 83 18 130 29 47 10 127 26 178 34 105 17 109 20 213 131 157 171 180
197 203 233 14 20 52 69 86 107 34 39 67 81 73 95 6 14 20 36 32 50 12 14 29
36 38 50 78 114 71 94 72 230 0 179 17 207 180 308 156 96 213 142 236 189 20
41 20 45 4 174 -9 73 -18 136 -21 140 -9 15 16 87 31 93 49 18 137 -82 166
-187 6 -23 11 -92 11 -153 -1 -120 7 -142 48 -129 32 10 43 44 48 150 3 75 0
112 -12 148 -26 76 -72 160 -105 191 -38 37 -38 46 -2 85 39 42 91 43 128 4
92 -99 94 -105 104 -220 5 -69 4 -143 -2 -207 -10 -86 -9 -100 5 -114 24 -24
68 -5 78 33 5 20 19 37 42 49 20 10 38 27 41 37 4 11 11 19 16 19 36 0 51 165
24 256 -8 27 -15 86 -16 131 -3 100 12 126 70 121 28 -2 41 -11 62 -43z
m-3895 -56 c72 -22 193 -82 206 -102 20 -32 9 -47 -35 -47 -51 0 -87 -22 -87
-55 0 -34 -16 -39 -66 -20 -38 14 -45 22 -54 58 -17 68 -30 87 -60 87 -15 0
-30 -3 -34 -7 -4 -5 -58 -8 -119 -9 -67 0 -122 -5 -137 -12 -49 -24 -114 -63
-131 -78 -34 -31 -29 5 13 90 28 56 50 87 63 90 63 14 154 23 256 25 93 1 131
-3 185 -20z m1064 -1870 c0 -11 4 -28 9 -37 4 -9 11 -34 14 -54 5 -35 4 -38
-29 -48 -77 -26 -97 1 -47 67 17 23 23 40 19 56 -6 26 0 37 21 37 7 0 13 -9
13 -21z m-150 -32 c0 -1 -7 -34 -15 -72 -9 -43 -15 -126 -15 -216 0 -191 18
-249 75 -235 25 6 26 8 19 65 -6 55 -5 58 17 64 13 4 41 7 62 7 49 0 49 -18
-3 -126 -91 -187 -166 -200 -645 -111 l-70 13 4 59 c2 37 14 86 33 130 18 43
32 96 35 138 3 37 11 74 17 82 23 30 133 86 239 121 61 20 136 47 166 60 50
21 81 29 81 21z"/>
<path d="M5068 4539 c-10 -5 -18 -19 -18 -29 0 -10 -4 -21 -9 -24 -11 -7 -23
-129 -15 -161 7 -30 42 -41 87 -28 28 8 35 18 59 81 l28 72 -25 50 c-23 45
-29 50 -58 50 -17 0 -40 -5 -49 -11z"/>
<path d="M1674 4255 c-51 -22 -115 -125 -135 -215 -4 -19 -13 -55 -19 -80 -17
-66 -7 -197 19 -248 25 -49 46 -62 99 -62 31 0 48 7 76 33 20 18 36 41 36 50
0 9 6 31 14 49 46 106 61 202 51 333 -6 78 -11 101 -29 122 -26 30 -69 37
-112 18z"/>
<path d="M1773 3428 c-37 -10 -51 -42 -59 -133 -4 -43 -1 -71 10 -97 15 -35
20 -38 56 -38 34 0 43 5 59 31 33 54 45 115 35 177 -8 52 -11 57 -39 62 -16 4
-44 3 -62 -2z"/>
<path d="M3435 2478 c-47 -17 -73 -45 -67 -74 9 -49 96 -56 147 -11 21 19 23
27 17 57 -7 30 -12 35 -37 37 -17 1 -43 -3 -60 -9z"/>
<path d="M3075 2318 c-23 -27 -26 -38 -21 -72 4 -22 12 -44 19 -48 23 -14 83
-9 99 10 25 28 48 79 48 105 0 29 -16 37 -75 37 -36 0 -47 -5 -70 -32z"/>
<path d="M3422 2253 c-17 -7 -42 -57 -42 -86 0 -32 38 -51 84 -43 44 8 63 27
72 71 10 55 1 65 -53 64 -26 0 -54 -3 -61 -6z"/>
<path d="M5160 1950 c-19 -11 -84 -43 -145 -72 -106 -50 -185 -101 -185 -118
0 -4 12 -10 28 -13 21 -5 68 14 209 84 99 49 183 96 186 103 7 18 -12 36 -37
36 -12 -1 -37 -9 -56 -20z"/>
<path d="M5068 1723 c-81 -83 -85 -87 -92 -108 -3 -11 -26 -42 -51 -69 -44
-47 -55 -78 -35 -91 23 -14 121 68 173 145 17 25 33 47 37 50 25 22 71 93 68
107 -7 37 -42 25 -100 -34z"/>
<path d="M5210 1567 c-8 -7 -23 -23 -33 -37 -9 -14 -35 -50 -56 -80 -43 -59
-121 -211 -121 -234 0 -7 7 -19 16 -26 22 -19 52 15 109 125 26 50 54 94 61
98 8 4 14 13 14 19 0 6 11 25 23 42 36 47 48 73 41 90 -7 19 -33 20 -54 3z"/>
<path d="M720 3573 c-52 -20 -104 -98 -132 -197 -17 -60 -22 -290 -8 -361 17
-85 62 -175 101 -205 48 -34 135 -40 181 -12 37 23 71 88 83 157 4 22 11 60
15 85 14 73 12 227 -4 258 -7 15 -16 56 -20 92 -4 46 -12 71 -29 90 -13 14
-29 37 -36 51 -7 15 -24 32 -38 38 -25 11 -87 14 -113 4z"/>
<path d="M1184 2140 c-39 -15 -61 -93 -59 -202 2 -82 5 -100 24 -124 18 -23
31 -29 74 -32 62 -4 86 15 111 88 31 88 16 186 -36 245 -31 36 -67 44 -114 25z"/>
<path d="M11139 1580 c-89 -11 -149 -48 -149 -93 0 -22 52 -85 84 -104 12 -7
53 -12 92 -13 50 0 85 -6 115 -20 80 -36 79 -37 79 110 l0 130 -77 -1 c-43 -1
-108 -5 -144 -9z"/>
<path d="M1990 1541 c-76 -41 -120 -189 -120 -397 0 -104 2 -118 28 -167 55
-107 96 -137 189 -137 97 0 163 116 180 314 11 135 -30 339 -78 382 -30 27
-154 30 -199 5z"/>
<path d="M2158 495 c-37 -21 -42 -43 -41 -172 1 -167 33 -216 128 -199 49 10
78 42 100 115 28 93 0 207 -60 247 -35 23 -95 27 -127 9z"/>
<path d="M5912 365 c-35 -15 -52 -42 -52 -83 0 -53 47 -65 89 -23 10 10 28 25
41 34 20 14 23 21 14 44 -11 33 -50 45 -92 28z"/>
</g>
</svg>
